<svg width="35" height="35" viewBox="0 0 35 35" fill="none" xmlns="http://www.w3.org/2000/svg">
<path d="M17 3C12.9294 3 12.4175 3.01875 10.8181 3.09C9.21875 3.165 8.12937 3.41625 7.175 3.7875C6.17346 4.16311 5.26651 4.75387 4.51813 5.51813C3.75387 6.26651 3.16311 7.17346 2.7875 8.175C2.41625 9.1275 2.16313 10.2187 2.09 11.8125C2.01875 13.4156 2 13.9256 2 18.0019C2 22.0744 2.01875 22.5844 2.09 24.1838C2.165 25.7813 2.41625 26.8706 2.7875 27.825C3.17187 28.8112 3.68375 29.6475 4.51813 30.4819C5.35063 31.3162 6.18688 31.83 7.17313 32.2125C8.12938 32.5837 9.21688 32.8369 10.8144 32.91C12.4156 32.9812 12.9256 33 17 33C21.0744 33 21.5825 32.9812 23.1838 32.91C24.7794 32.835 25.8725 32.5837 26.8269 32.2125C27.8277 31.8366 28.734 31.2459 29.4819 30.4819C30.3162 29.6475 30.8281 28.8112 31.2125 27.825C31.5819 26.8706 31.835 25.7813 31.91 24.1838C31.9812 22.5844 32 22.0744 32 18C32 13.9256 31.9812 13.4156 31.91 11.8144C31.835 10.2188 31.5819 9.1275 31.2125 8.175C30.8369 7.17346 30.2461 6.26651 29.4819 5.51813C28.7335 4.75387 27.8265 4.16311 26.825 3.7875C25.8687 3.41625 24.7775 3.16313 23.1819 3.09C21.5806 3.01875 21.0725 3 16.9963 3H17ZM15.6556 5.70375H17.0019C21.0069 5.70375 21.4812 5.71688 23.0619 5.79C24.5244 5.85563 25.3194 6.10125 25.8481 6.30563C26.5475 6.5775 27.0481 6.90375 27.5731 7.42875C28.0981 7.95375 28.4225 8.4525 28.6944 9.15375C28.9006 9.68063 29.1444 10.4756 29.21 11.9381C29.2831 13.5188 29.2981 13.9931 29.2981 17.9963C29.2981 21.9994 29.2831 22.4756 29.21 24.0562C29.1444 25.5187 28.8988 26.3119 28.6944 26.8406C28.4522 27.4911 28.0686 28.0796 27.5712 28.5637C27.0462 29.0887 26.5475 29.4131 25.8463 29.685C25.3213 29.8913 24.5262 30.135 23.0619 30.2025C21.4812 30.2738 21.0069 30.2906 17.0019 30.2906C12.9969 30.2906 12.5206 30.2738 10.94 30.2025C9.4775 30.135 8.68437 29.8913 8.15562 29.685C7.50469 29.4436 6.9155 29.0606 6.43062 28.5637C5.93239 28.0793 5.54812 27.49 5.30563 26.8387C5.10125 26.3119 4.85563 25.5169 4.79 24.0544C4.71875 22.4738 4.70375 21.9994 4.70375 17.9925C4.70375 13.9856 4.71875 13.515 4.79 11.9344C4.8575 10.4719 5.10125 9.67688 5.3075 9.14813C5.57938 8.44875 5.90562 7.94812 6.43062 7.42312C6.95562 6.89812 7.45437 6.57375 8.15562 6.30188C8.68437 6.09563 9.4775 5.85188 10.94 5.78438C12.3238 5.72063 12.86 5.70188 15.6556 5.7V5.70375ZM25.0081 8.19375C24.7717 8.19375 24.5377 8.24031 24.3193 8.33077C24.1009 8.42123 23.9025 8.55381 23.7353 8.72096C23.5682 8.8881 23.4356 9.08653 23.3451 9.30492C23.2547 9.52331 23.2081 9.75737 23.2081 9.99375C23.2081 10.2301 23.2547 10.4642 23.3451 10.6826C23.4356 10.901 23.5682 11.0994 23.7353 11.2665C23.9025 11.4337 24.1009 11.5663 24.3193 11.6567C24.5377 11.7472 24.7717 11.7938 25.0081 11.7938C25.4855 11.7938 25.9434 11.6041 26.2809 11.2665C26.6185 10.929 26.8081 10.4711 26.8081 9.99375C26.8081 9.51636 26.6185 9.05852 26.2809 8.72096C25.9434 8.38339 25.4855 8.19375 25.0081 8.19375ZM17.0019 10.2975C15.9801 10.2816 14.9654 10.469 14.0168 10.849C13.0682 11.229 12.2047 11.7939 11.4765 12.5108C10.7483 13.2277 10.1701 14.0823 9.77533 15.0249C9.3806 15.9674 9.17731 16.9791 9.17731 18.0009C9.17731 19.0228 9.3806 20.0345 9.77533 20.977C10.1701 21.9196 10.7483 22.7742 11.4765 23.4911C12.2047 24.208 13.0682 24.7729 14.0168 25.1529C14.9654 25.5328 15.9801 25.7203 17.0019 25.7044C19.0241 25.6728 20.9529 24.8473 22.3718 23.4061C23.7908 21.9649 24.5861 20.0234 24.5861 18.0009C24.5861 15.9784 23.7908 14.037 22.3718 12.5958C20.9529 11.1545 19.0241 10.3291 17.0019 10.2975ZM17.0019 12.9994C17.6586 12.9994 18.3088 13.1287 18.9155 13.38C19.5222 13.6313 20.0735 13.9997 20.5379 14.464C21.0022 14.9284 21.3705 15.4796 21.6219 16.0863C21.8732 16.693 22.0025 17.3433 22.0025 18C22.0025 18.6567 21.8732 19.307 21.6219 19.9137C21.3705 20.5204 21.0022 21.0716 20.5379 21.536C20.0735 22.0003 19.5222 22.3687 18.9155 22.62C18.3088 22.8713 17.6586 23.0006 17.0019 23.0006C15.6756 23.0006 14.4037 22.4738 13.4659 21.536C12.5281 20.5982 12.0013 19.3262 12.0013 18C12.0013 16.6738 12.5281 15.4018 13.4659 14.464C14.4037 13.5262 15.6756 12.9994 17.0019 12.9994Z" fill="#FAFAFF"/>
</svg>
