<svg width="76" height="37" viewBox="0 0 76 37" fill="none" xmlns="http://www.w3.org/2000/svg">
<path d="M24.0011 14.2911C24.0011 16.6138 26.5136 18.4888 29.626 18.4888L55.2505 18.4888V14.7575L29.626 10.0934C26.5136 10.0934 24.0011 11.9684 24.0011 14.2911Z" stroke="#273468" stroke-width="3" stroke-miterlimit="2" stroke-linecap="round" stroke-linejoin="round"/>
<path d="M55.2505 14.7574V11.0261L31.626 2.33229C28.3635 1.29687 24.4511 2.78005 24.0386 5.41059C23.9457 5.99898 24.021 6.59539 24.2594 7.16049C24.4979 7.7256 24.8942 8.24656 25.4221 8.68903C25.9501 9.1315 26.5977 9.48544 27.3223 9.7275C28.047 9.96956 28.8321 10.0942 29.626 10.0933M24.0011 22.6864C24.0011 20.3636 26.5136 18.4887 29.626 18.4887L55.2505 18.4887V22.22L29.626 26.884C26.5136 26.884 24.0011 25.0091 24.0011 22.6864Z" stroke="#273468" stroke-width="3" stroke-miterlimit="2" stroke-linecap="round" stroke-linejoin="round"/>
<path d="M55.2504 22.2201V25.9514L31.6259 34.6452C28.3634 35.6807 24.451 34.1975 24.0385 31.5669C23.9456 30.9785 24.0208 30.3821 24.2593 29.817C24.4978 29.2519 24.8941 28.731 25.422 28.2885C25.95 27.846 26.5976 27.4921 27.3222 27.25C28.0469 27.008 28.832 26.8833 29.6259 26.8842M62.7502 11.0823C63.1627 11.045 63.5752 11.0263 64.0002 11.0263C69.5251 11.0263 74 14.3658 74 18.4888C74 22.6119 69.5251 25.9514 64.0002 25.9514C63.5752 25.9514 63.1627 25.9327 62.7502 25.8954V11.0823Z" stroke="#273468" stroke-width="3" stroke-miterlimit="2" stroke-linecap="round" stroke-linejoin="round"/>
<line x1="18" y1="11.152" x2="8" y2="11.152" stroke="#273468" stroke-width="2" stroke-linecap="round"/>
<line x1="18" y1="19.152" x2="1" y2="19.152" stroke="#273468" stroke-width="2" stroke-linecap="round"/>
<line x1="18" y1="27.152" x2="8" y2="27.152" stroke="#273468" stroke-width="2" stroke-linecap="round"/>
</svg>
