<svg width="35" height="35" viewBox="0 0 35 35" fill="none" xmlns="http://www.w3.org/2000/svg">
<path fill-rule="evenodd" clip-rule="evenodd" d="M11.896 23.1054C17.0227 28.232 21.7734 28.7934 23.168 28.8454C24.8534 28.9067 26.5734 27.5307 27.3174 26.1214C26.1307 24.7294 24.5854 23.6494 22.8934 22.4787C21.8947 23.476 20.664 25.3294 19.0254 24.6654C18.0934 24.2907 15.792 23.2307 13.7814 21.2187C11.7694 19.208 10.7107 16.9067 10.3334 15.976C9.66937 14.3347 11.528 13.1014 12.5267 12.1027C11.356 10.3827 10.2947 8.79738 8.90537 7.67071C7.47604 8.41738 6.09204 10.124 6.15471 11.832C6.20671 13.2267 6.76804 17.9774 11.896 23.1054ZM23.0694 31.5107C21.1494 31.44 15.708 30.688 10.0094 24.9907C4.31204 19.292 3.56137 13.852 3.48937 11.9307C3.38271 9.00271 5.62537 6.15871 8.21604 5.04804C8.52801 4.91333 8.86964 4.86204 9.20741 4.89921C9.54519 4.93638 9.86749 5.06072 10.1427 5.26004C12.2867 6.82404 13.7654 9.19338 15.036 11.0494C15.3004 11.4353 15.4215 11.9015 15.3784 12.3673C15.3353 12.8331 15.1307 13.2692 14.8 13.6L12.992 15.4094C13.412 16.336 14.2667 17.9334 15.6667 19.3334C17.0667 20.7334 18.664 21.588 19.592 22.008L21.3987 20.2C21.7309 19.8687 22.1688 19.6644 22.6361 19.6227C23.1034 19.5811 23.5705 19.7047 23.956 19.972C25.8494 21.284 28.0734 22.7414 29.6947 24.8174C29.9102 25.0946 30.0473 25.4246 30.0916 25.7729C30.136 26.1212 30.0859 26.475 29.9467 26.7974C28.8307 29.4014 26.0067 31.6187 23.0694 31.5107Z" fill="#FAFAFF"/>
</svg>
