<svg width="25" height="37" viewBox="0 0 25 37" fill="none" xmlns="http://www.w3.org/2000/svg">
<path d="M9.75913 35.4201C11.3581 35.4201 12.6489 33.6905 12.6489 31.5478L12.6489 13.9075H10.0802L6.86938 31.5478C6.86938 33.6905 8.16014 35.4201 9.75913 35.4201Z" stroke="#FAFAFF" stroke-width="2" stroke-miterlimit="2" stroke-linecap="round" stroke-linejoin="round"/>
<path d="M10.0803 13.9075L7.5116 13.9075L1.52661 30.171C0.813804 32.4169 1.83485 35.1103 3.64576 35.3942C4.05081 35.4582 4.46139 35.4064 4.85042 35.2422C5.23944 35.0781 5.59808 34.8053 5.90269 34.4418C6.20729 34.0784 6.45095 33.6325 6.61758 33.1337C6.78422 32.6348 6.87006 32.0943 6.86943 31.5478M15.5387 35.4201C13.9397 35.4201 12.6489 33.6905 12.6489 31.5478L12.6489 13.9075H15.2176L18.4284 31.5478C18.4284 33.6905 17.1377 35.4201 15.5387 35.4201Z" stroke="#FAFAFF" stroke-width="2" stroke-miterlimit="2" stroke-linecap="round" stroke-linejoin="round"/>
<path d="M15.2177 13.9076L17.7864 13.9076L23.7714 30.1711C24.4842 32.417 23.4631 35.1104 21.6522 35.3943C21.2472 35.4583 20.8366 35.4065 20.4476 35.2423C20.0585 35.0782 19.6999 34.8054 19.3953 34.4419C19.0907 34.0785 18.847 33.6326 18.6804 33.1338C18.5138 32.6349 18.4279 32.0944 18.4285 31.5479M7.55025 8.74458C7.52456 8.46062 7.51172 8.17665 7.51172 7.88408C7.51172 4.08066 9.81067 1.00006 12.649 1.00006C15.4874 1.00006 17.7864 4.08066 17.7864 7.88408C17.7864 8.17665 17.7735 8.46062 17.7478 8.74458H7.55025Z" stroke="#FAFAFF" stroke-width="2" stroke-miterlimit="2" stroke-linecap="round" stroke-linejoin="round"/>
</svg>
