<svg width="82" height="85" viewBox="0 0 82 85" fill="none" xmlns="http://www.w3.org/2000/svg">
<g clip-path="url(#clip0_27_43)">
<path d="M26.2661 18.3293C24.3055 20.0274 24.5597 23.5189 26.8352 26.1461L45.5693 47.7754L48.7189 45.0475L33.9217 20.0082C31.6462 17.3811 28.2267 16.6311 26.2661 18.3293Z" stroke="#FAFAFF" stroke-width="3" stroke-miterlimit="2" stroke-linecap="round" stroke-linejoin="round"/>
<path d="M48.7189 45.0475L51.8684 42.3196L41.9349 16.0223C40.4237 12.5115 36.3114 10.2934 33.7894 11.8684C33.2248 12.2202 32.7764 12.7197 32.4738 13.3342C32.1711 13.9486 32.0211 14.664 32.0336 15.4331C32.0461 16.2022 32.2209 17.0077 32.5463 17.7963C32.8718 18.5849 33.3405 19.3388 33.9217 20.0082M19.1797 24.4671C21.1403 22.769 24.5598 23.5189 26.8353 26.1461L45.5694 47.7754L42.4199 50.5034L19.7489 32.2839C17.4734 29.6568 17.2192 26.1653 19.1797 24.4671Z" stroke="#FAFAFF" stroke-width="3" stroke-miterlimit="2" stroke-linecap="round" stroke-linejoin="round"/>
<path d="M42.4197 50.5034L39.2702 53.2313L14.6599 39.6462C11.4008 37.6495 9.79231 33.2627 11.7111 30.9913C12.1399 30.4827 12.6983 30.1102 13.3497 29.8983C14.001 29.6865 14.7305 29.6401 15.4899 29.7622C16.2494 29.8844 17.0216 30.1723 17.7557 30.607C18.4898 31.0416 19.1691 31.6132 19.7487 32.284M57.3042 48.691C57.6373 49.0119 57.9546 49.3465 58.2653 49.7052C62.3046 54.3687 62.7574 60.5874 59.2771 63.6018C55.7969 66.6162 49.7065 65.2805 45.6672 60.617C45.3565 60.2582 45.0707 59.8964 44.8006 59.521L57.3042 48.691Z" stroke="#FAFAFF" stroke-width="3" stroke-miterlimit="2" stroke-linecap="round" stroke-linejoin="round"/>
</g>
<defs>
<clipPath id="clip0_27_43">
<rect width="50" height="67" fill="white" transform="translate(81.8298 51.4545) rotate(139.103)"/>
</clipPath>
</defs>
</svg>
